{
    "asset" : {
        "generator" : "Khronos glTF Blender I/O v1.7.33",
        "version" : "2.0"
    },
    "extensionsUsed" : [
        "KHR_materials_transmission"
    ],
    "scene" : 0,
    "scenes" : [
        {
            "name" : "Scene",
            "nodes" : [
                0,
                1,
                2
            ]
        }
    ],
    "nodes" : [
        {
            "mesh" : 0,
            "name" : "22DSANEST013SJ.001",
            "rotation" : [
                1,
                0,
                0,
                -4.371138828673793e-08
            ],
            "scale" : [
                0.1300601214170456,
                0.13005995750427246,
                0.1300601214170456
            ]
        },
        {
            "mesh" : 1,
            "name" : "22DSANEST013SJ.002",
            "rotation" : [
                1,
                0,
                0,
                -4.371138828673793e-08
            ],
            "scale" : [
                0.1300601214170456,
                0.13005995750427246,
                0.1300601214170456
            ]
        },
        {
            "mesh" : 2,
            "name" : "22DSANEST013SJ.003",
            "rotation" : [
                1,
                0,
                0,
                -4.371138828673793e-08
            ],
            "scale" : [
                0.1300601214170456,
                0.13005995750427246,
                0.1300601214170456
            ]
        }
    ],
    "materials" : [
        {
            "doubleSided" : true,
            "name" : "White Gold-14k",
            "pbrMetallicRoughness" : {
                "baseColorFactor" : [
                    0.6795423626899719,
                    0.6621439456939697,
                    0.5363724827766418,
                    1
                ],
                "roughnessFactor" : 0.20000000298023224
            }
        },
        {
            "doubleSided" : true,
            "name" : "18KT new Y gold",
            "pbrMetallicRoughness" : {
                "baseColorFactor" : [
                    0.6795421838760376,
                    0.42326730489730835,
                    0.054480403661727905,
                    1
                ],
                "roughnessFactor" : 0
            }
        },
        {
            "emissiveFactor" : [
                0.15000000596046448,
                0.15000000596046448,
                0.15000000596046448
            ],
            "extensions" : {
                "KHR_materials_transmission" : {
                    "transmissionFactor" : 1
                }
            },
            "name" : "Diamond",
            "pbrMetallicRoughness" : {
                "metallicFactor" : 0.8854166865348816,
                "roughnessFactor" : 0
            }
        }
    ],
    "meshes" : [
        {
            "name" : "22DSANEST013SJ.001",
            "primitives" : [
                {
                    "attributes" : {
                        "POSITION" : 0,
                        "NORMAL" : 1,
                        "TEXCOORD_0" : 2
                    },
                    "indices" : 3,
                    "material" : 0
                }
            ]
        },
        {
            "name" : "22DSANEST013SJ.002",
            "primitives" : [
                {
                    "attributes" : {
                        "POSITION" : 4,
                        "NORMAL" : 5,
                        "TEXCOORD_0" : 6
                    },
                    "indices" : 7,
                    "material" : 1
                }
            ]
        },
        {
            "name" : "22DSANEST013SJ.003",
            "primitives" : [
                {
                    "attributes" : {
                        "POSITION" : 8,
                        "NORMAL" : 9,
                        "TEXCOORD_0" : 10
                    },
                    "indices" : 11,
                    "material" : 2
                }
            ]
        }
    ],
    "accessors" : [
        {
            "bufferView" : 0,
            "componentType" : 5126,
            "count" : 4160,
            "max" : [
                4.212216854095459,
                10.431136131286621,
                -1.7311956882476807
            ],
            "min" : [
                -4.334572792053223,
                -10.255525588989258,
                -4.007479190826416
            ],
            "type" : "VEC3"
        },
        {
            "bufferView" : 1,
            "componentType" : 5126,
            "count" : 4160,
            "type" : "VEC3"
        },
        {
            "bufferView" : 2,
            "componentType" : 5126,
            "count" : 4160,
            "type" : "VEC2"
        },
        {
            "bufferView" : 3,
            "componentType" : 5123,
            "count" : 15399,
            "type" : "SCALAR"
        },
        {
            "bufferView" : 4,
            "componentType" : 5126,
            "count" : 3364,
            "max" : [
                6.227818965911865,
                12.92031478881836,
                9.856799125671387
            ],
            "min" : [
                -6.342599868774414,
                -12.932169914245605,
                -3.577425241470337
            ],
            "type" : "VEC3"
        },
        {
            "bufferView" : 5,
            "componentType" : 5126,
            "count" : 3364,
            "type" : "VEC3"
        },
        {
            "bufferView" : 6,
            "componentType" : 5126,
            "count" : 3364,
            "type" : "VEC2"
        },
        {
            "bufferView" : 7,
            "componentType" : 5123,
            "count" : 17568,
            "type" : "SCALAR"
        },
        {
            "bufferView" : 8,
            "componentType" : 5126,
            "count" : 12432,
            "max" : [
                3.676959991455078,
                9.194323539733887,
                -2.2378008365631104
            ],
            "min" : [
                -3.803168773651123,
                -9.194551467895508,
                -3.921302318572998
            ],
            "type" : "VEC3"
        },
        {
            "bufferView" : 9,
            "componentType" : 5126,
            "count" : 12432,
            "type" : "VEC3"
        },
        {
            "bufferView" : 10,
            "componentType" : 5126,
            "count" : 12432,
            "type" : "VEC2"
        },
        {
            "bufferView" : 11,
            "componentType" : 5123,
            "count" : 20034,
            "type" : "SCALAR"
        }
    ],
    "bufferViews" : [
        {
            "buffer" : 0,
            "byteLength" : 49920,
            "byteOffset" : 0
        },
        {
            "buffer" : 0,
            "byteLength" : 49920,
            "byteOffset" : 49920
        },
        {
            "buffer" : 0,
            "byteLength" : 33280,
            "byteOffset" : 99840
        },
        {
            "buffer" : 0,
            "byteLength" : 30798,
            "byteOffset" : 133120
        },
        {
            "buffer" : 0,
            "byteLength" : 40368,
            "byteOffset" : 163920
        },
        {
            "buffer" : 0,
            "byteLength" : 40368,
            "byteOffset" : 204288
        },
        {
            "buffer" : 0,
            "byteLength" : 26912,
            "byteOffset" : 244656
        },
        {
            "buffer" : 0,
            "byteLength" : 35136,
            "byteOffset" : 271568
        },
        {
            "buffer" : 0,
            "byteLength" : 149184,
            "byteOffset" : 306704
        },
        {
            "buffer" : 0,
            "byteLength" : 149184,
            "byteOffset" : 455888
        },
        {
            "buffer" : 0,
            "byteLength" : 99456,
            "byteOffset" : 605072
        },
        {
            "buffer" : 0,
            "byteLength" : 40068,
            "byteOffset" : 704528
        }
    ],
    "buffers" : [
        {
            "byteLength" : 744596,
            "uri" : "data:application/octet-stream;base64,"
        }
    ]
}
