{
    "asset" : {
        "generator" : "Khronos glTF Blender I/O v1.7.33",
        "version" : "2.0"
    },
    "extensionsUsed" : [
        "KHR_materials_transmission"
    ],
    "scene" : 0,
    "scenes" : [
        {
            "name" : "Scene",
            "nodes" : [
                6
            ]
        }
    ],
    "nodes" : [
        {
            "mesh" : 0,
            "name" : "Barre.001",
            "rotation" : [
                -0.025049548596143723,
                0,
                0,
                0.9996863007545471
            ],
            "scale" : [
                0.8033231496810913,
                0.8033231496810913,
                0.8033231496810913
            ],
            "translation" : [
                0,
                0.03170657530426979,
                0.015102983452379704
            ]
        },
        {
            "mesh" : 1,
            "name" : "Branche.001",
            "rotation" : [
                -0.025049548596143723,
                0,
                0,
                0.9996863007545471
            ],
            "translation" : [
                0,
                0.0292233694344759,
                0
            ]
        },
        {
            "mesh" : 2,
            "name" : "Charni\u00e8res.001",
            "rotation" : [
                -0.025049548596143723,
                0,
                0,
                0.9996863007545471
            ],
            "translation" : [
                0,
                0.029223371297121048,
                0
            ]
        },
        {
            "mesh" : 3,
            "name" : "Monture.001",
            "rotation" : [
                -0.025049548596143723,
                0,
                0,
                0.9996863007545471
            ],
            "scale" : [
                0.8033231496810913,
                0.8033231496810913,
                0.8033231496810913
            ],
            "translation" : [
                0,
                0.03170657530426979,
                0.015102983452379704
            ]
        },
        {
            "mesh" : 4,
            "name" : "Tiges Metal.001",
            "rotation" : [
                -0.025049548596143723,
                0,
                0,
                0.9996863007545471
            ],
            "translation" : [
                0,
                0.0292233694344759,
                0
            ]
        },
        {
            "mesh" : 5,
            "name" : "Verres.001",
            "rotation" : [
                -0.025049548596143723,
                0,
                0,
                0.9996863007545471
            ],
            "scale" : [
                0.8033231496810913,
                0.8033231496810913,
                0.8033231496810913
            ],
            "translation" : [
                0,
                0.03170657530426979,
                0.015102983452379704
            ]
        },
        {
            "children" : [
                0,
                1,
                2,
                3,
                4,
                5
            ],
            "name" : "Sunglasses.001",
            "scale" : [
                22.27834701538086,
                22.27834701538086,
                22.27834701538086
            ],
            "translation" : [
                0.003009602427482605,
                -0.8971259593963623,
                -1.3419804573059082
            ]
        }
    ],
    "materials" : [
        {
            "doubleSided" : true,
            "name" : "Metal",
            "pbrMetallicRoughness" : {
                "baseColorFactor" : [
                    0.9440000057220459,
                    0.7760000228881836,
                    0.37299999594688416,
                    1
                ]
            }
        },
        {
            "doubleSided" : true,
            "extensions" : {
                "KHR_materials_transmission" : {
                    "transmissionFactor" : 1
                }
            },
            "name" : "Sunglasses - Plastic",
            "normalTexture" : {
                "index" : 0
            },
            "pbrMetallicRoughness" : {
                "baseColorTexture" : {
                    "index" : 1
                },
                "metallicRoughnessTexture" : {
                    "index" : 2
                }
            }
        },
        {
            "doubleSided" : true,
            "extensions" : {
                "KHR_materials_transmission" : {
                    "transmissionFactor" : 1
                }
            },
            "name" : "Sunglasses - Lenses",
            "pbrMetallicRoughness" : {
                "metallicFactor" : 0.19090910255908966,
                "roughnessFactor" : 0
            }
        }
    ],
    "meshes" : [
        {
            "name" : "Plane.039",
            "primitives" : [
                {
                    "attributes" : {
                        "POSITION" : 0,
                        "NORMAL" : 1,
                        "TEXCOORD_0" : 2
                    },
                    "indices" : 3,
                    "material" : 0
                }
            ]
        },
        {
            "name" : "Plane.038",
            "primitives" : [
                {
                    "attributes" : {
                        "POSITION" : 4,
                        "NORMAL" : 5,
                        "TEXCOORD_0" : 6
                    },
                    "indices" : 7,
                    "material" : 1
                }
            ]
        },
        {
            "name" : "Plane.037",
            "primitives" : [
                {
                    "attributes" : {
                        "POSITION" : 8,
                        "NORMAL" : 9,
                        "TEXCOORD_0" : 10
                    },
                    "indices" : 11,
                    "material" : 0
                }
            ]
        },
        {
            "name" : "Plane.036",
            "primitives" : [
                {
                    "attributes" : {
                        "POSITION" : 12,
                        "NORMAL" : 13,
                        "TEXCOORD_0" : 14
                    },
                    "indices" : 15,
                    "material" : 1
                }
            ]
        },
        {
            "name" : "Plane.034",
            "primitives" : [
                {
                    "attributes" : {
                        "POSITION" : 16,
                        "NORMAL" : 17,
                        "TEXCOORD_0" : 18
                    },
                    "indices" : 19,
                    "material" : 0
                }
            ]
        },
        {
            "name" : "Plane.033",
            "primitives" : [
                {
                    "attributes" : {
                        "POSITION" : 20,
                        "NORMAL" : 21,
                        "TEXCOORD_0" : 22
                    },
                    "indices" : 23,
                    "material" : 2
                }
            ]
        }
    ],
    "textures" : [
        {
            "sampler" : 0,
            "source" : 0
        },
        {
            "sampler" : 0,
            "source" : 0
        },
        {
            "sampler" : 0,
            "source" : 1
        }
    ],
    "images" : [
        {
            "bufferView" : 8,
            "mimeType" : "image/jpeg",
            "name" : "Vegas"
        },
        {
            "bufferView" : 9,
            "mimeType" : "image/png",
            "name" : "Vegas"
        }
    ],
    "accessors" : [
        {
            "bufferView" : 0,
            "componentType" : 5126,
            "count" : 1617,
            "max" : [
                0.10329217463731766,
                0.027796432375907898,
                0.07191714644432068
            ],
            "min" : [
                -0.10329217463731766,
                0.013189074583351612,
                0.05489882454276085
            ],
            "type" : "VEC3"
        },
        {
            "bufferView" : 1,
            "componentType" : 5126,
            "count" : 1617,
            "type" : "VEC3"
        },
        {
            "bufferView" : 2,
            "componentType" : 5126,
            "count" : 1617,
            "type" : "VEC2"
        },
        {
            "bufferView" : 3,
            "componentType" : 5123,
            "count" : 6096,
            "type" : "SCALAR"
        },
        {
            "bufferView" : 4,
            "componentType" : 5126,
            "count" : 11817,
            "max" : [
                0.08659414947032928,
                0.012472095899283886,
                0.054537881165742874
            ],
            "min" : [
                -0.08659415692090988,
                0.004297170322388411,
                -0.007743306457996368
            ],
            "type" : "VEC3"
        },
        {
            "bufferView" : 5,
            "componentType" : 5126,
            "count" : 11817,
            "type" : "VEC3"
        },
        {
            "bufferView" : 6,
            "componentType" : 5126,
            "count" : 11817,
            "type" : "VEC2"
        },
        {
            "bufferView" : 7,
            "componentType" : 5123,
            "count" : 59904,
            "type" : "SCALAR"
        },
        {
            "bufferView" : 10,
            "componentType" : 5126,
            "count" : 2452,
            "max" : [
                0.08613664656877518,
                0.010389545001089573,
                0.059959858655929565
            ],
            "min" : [
                -0.08613664656877518,
                0.006766433361917734,
                0.04265189170837402
            ],
            "type" : "VEC3"
        },
        {
            "bufferView" : 11,
            "componentType" : 5126,
            "count" : 2452,
            "type" : "VEC3"
        },
        {
            "bufferView" : 12,
            "componentType" : 5126,
            "count" : 2452,
            "type" : "VEC2"
        },
        {
            "bufferView" : 13,
            "componentType" : 5123,
            "count" : 9288,
            "type" : "SCALAR"
        },
        {
            "bufferView" : 14,
            "componentType" : 5126,
            "count" : 23603,
            "max" : [
                0.10823759436607361,
                0.025642087683081627,
                0.07377868890762329
            ],
            "min" : [
                -0.10823759436607361,
                -0.032371070235967636,
                0.05122704431414604
            ],
            "type" : "VEC3"
        },
        {
            "bufferView" : 15,
            "componentType" : 5126,
            "count" : 23603,
            "type" : "VEC3"
        },
        {
            "bufferView" : 16,
            "componentType" : 5126,
            "count" : 23603,
            "type" : "VEC2"
        },
        {
            "bufferView" : 17,
            "componentType" : 5123,
            "count" : 126720,
            "type" : "SCALAR"
        },
        {
            "bufferView" : 18,
            "componentType" : 5126,
            "count" : 2096,
            "max" : [
                0.08575756102800369,
                0.009416964836418629,
                0.05053894966840744
            ],
            "min" : [
                -0.08575756102800369,
                -0.007685102988034487,
                -0.08226995170116425
            ],
            "type" : "VEC3"
        },
        {
            "bufferView" : 19,
            "componentType" : 5126,
            "count" : 2096,
            "type" : "VEC3"
        },
        {
            "bufferView" : 20,
            "componentType" : 5126,
            "count" : 2096,
            "type" : "VEC2"
        },
        {
            "bufferView" : 21,
            "componentType" : 5123,
            "count" : 8448,
            "type" : "SCALAR"
        },
        {
            "bufferView" : 22,
            "componentType" : 5126,
            "count" : 1992,
            "max" : [
                0.09899642318487167,
                0.021988822147250175,
                0.07117890566587448
            ],
            "min" : [
                -0.09899642318487167,
                -0.029924392700195312,
                0.0547458790242672
            ],
            "type" : "VEC3"
        },
        {
            "bufferView" : 23,
            "componentType" : 5126,
            "count" : 1992,
            "type" : "VEC3"
        },
        {
            "bufferView" : 24,
            "componentType" : 5126,
            "count" : 1992,
            "type" : "VEC2"
        },
        {
            "bufferView" : 25,
            "componentType" : 5123,
            "count" : 9024,
            "type" : "SCALAR"
        }
    ],
    "bufferViews" : [
        {
            "buffer" : 0,
            "byteLength" : 19404,
            "byteOffset" : 0
        },
        {
            "buffer" : 0,
            "byteLength" : 19404,
            "byteOffset" : 19404
        },
        {
            "buffer" : 0,
            "byteLength" : 12936,
            "byteOffset" : 38808
        },
        {
            "buffer" : 0,
            "byteLength" : 12192,
            "byteOffset" : 51744
        },
        {
            "buffer" : 0,
            "byteLength" : 141804,
            "byteOffset" : 63936
        },
        {
            "buffer" : 0,
            "byteLength" : 141804,
            "byteOffset" : 205740
        },
        {
            "buffer" : 0,
            "byteLength" : 94536,
            "byteOffset" : 347544
        },
        {
            "buffer" : 0,
            "byteLength" : 119808,
            "byteOffset" : 442080
        },
        {
            "buffer" : 0,
            "byteLength" : 29930,
            "byteOffset" : 561888
        },
        {
            "buffer" : 0,
            "byteLength" : 29866,
            "byteOffset" : 591820
        },
        {
            "buffer" : 0,
            "byteLength" : 29424,
            "byteOffset" : 621688
        },
        {
            "buffer" : 0,
            "byteLength" : 29424,
            "byteOffset" : 651112
        },
        {
            "buffer" : 0,
            "byteLength" : 19616,
            "byteOffset" : 680536
        },
        {
            "buffer" : 0,
            "byteLength" : 18576,
            "byteOffset" : 700152
        },
        {
            "buffer" : 0,
            "byteLength" : 283236,
            "byteOffset" : 718728
        },
        {
            "buffer" : 0,
            "byteLength" : 283236,
            "byteOffset" : 1001964
        },
        {
            "buffer" : 0,
            "byteLength" : 188824,
            "byteOffset" : 1285200
        },
        {
            "buffer" : 0,
            "byteLength" : 253440,
            "byteOffset" : 1474024
        },
        {
            "buffer" : 0,
            "byteLength" : 25152,
            "byteOffset" : 1727464
        },
        {
            "buffer" : 0,
            "byteLength" : 25152,
            "byteOffset" : 1752616
        },
        {
            "buffer" : 0,
            "byteLength" : 16768,
            "byteOffset" : 1777768
        },
        {
            "buffer" : 0,
            "byteLength" : 16896,
            "byteOffset" : 1794536
        },
        {
            "buffer" : 0,
            "byteLength" : 23904,
            "byteOffset" : 1811432
        },
        {
            "buffer" : 0,
            "byteLength" : 23904,
            "byteOffset" : 1835336
        },
        {
            "buffer" : 0,
            "byteLength" : 15936,
            "byteOffset" : 1859240
        },
        {
            "buffer" : 0,
            "byteLength" : 18048,
            "byteOffset" : 1875176
        }
    ],
    "samplers" : [
        {
            "magFilter" : 9729,
            "minFilter" : 9987
        }
    ],
    "buffers" : [
        {
            "byteLength" : 1893224,
            "uri" : "data:application/octet-stream;base64,"
        }
    ]
}
