{
    "asset" : {
        "generator" : "Khronos glTF Blender I/O v1.7.33",
        "version" : "2.0"
    },
    "extensionsUsed" : [
        "KHR_materials_transmission"
    ],
    "scene" : 0,
    "scenes" : [
        {
            "name" : "Scene",
            "nodes" : [
                0,
                1,
                2,
                3,
                4
            ]
        }
    ],
    "nodes" : [
        {
            "mesh" : 0,
            "name" : "22DSANPST013SJ.002",
            "rotation" : [
                -0.9999785423278809,
                0,
                0,
                -0.006549593526870012
            ],
            "scale" : [
                0.012482364661991596,
                0.012482364661991596,
                0.012482364661991596
            ]
        },
        {
            "mesh" : 1,
            "name" : "22DSANPST013SJ.004",
            "rotation" : [
                -0.9999785423278809,
                0,
                0,
                -0.006549593526870012
            ],
            "scale" : [
                0.02146659977734089,
                0.02146659977734089,
                0.02146659977734089
            ]
        },
        {
            "mesh" : 2,
            "name" : "22DSANPST013SJ.005",
            "rotation" : [
                -0.9999785423278809,
                0,
                0,
                -0.006549593526870012
            ],
            "scale" : [
                0.012482364661991596,
                0.012482364661991596,
                0.012482364661991596
            ]
        },
        {
            "mesh" : 3,
            "name" : "22DSANPST013SJ.006",
            "rotation" : [
                -0.9999785423278809,
                0,
                0,
                -0.006549593526870012
            ],
            "scale" : [
                0.012482364661991596,
                0.012482364661991596,
                0.012482364661991596
            ]
        },
        {
            "mesh" : 4,
            "name" : "22DSANPST013SJ.007",
            "rotation" : [
                -0.9999785423278809,
                0,
                0,
                -0.006549593526870012
            ],
            "scale" : [
                0.01666182093322277,
                0.02146659605205059,
                0.02146659605205059
            ]
        }
    ],
    "materials" : [
        {
            "doubleSided" : true,
            "name" : "18KT new Y gold",
            "pbrMetallicRoughness" : {
                "baseColorFactor" : [
                    0.6795421838760376,
                    0.42326730489730835,
                    0.054480403661727905,
                    1
                ],
                "roughnessFactor" : 0.20000000298023224
            }
        },
        {
            "extensions" : {
                "KHR_materials_transmission" : {
                    "transmissionFactor" : 1
                }
            },
            "name" : "Diamond",
            "pbrMetallicRoughness" : {
                "roughnessFactor" : 0
            }
        },
        {
            "doubleSided" : true,
            "name" : "material_0",
            "pbrMetallicRoughness" : {
                "roughnessFactor" : 0.23883679509162903
            }
        }
    ],
    "meshes" : [
        {
            "name" : "22DSANPST013SJ.002",
            "primitives" : [
                {
                    "attributes" : {
                        "POSITION" : 0,
                        "NORMAL" : 1,
                        "TEXCOORD_0" : 2
                    },
                    "indices" : 3,
                    "material" : 0
                }
            ]
        },
        {
            "name" : "22DSANPST013SJ.004",
            "primitives" : [
                {
                    "attributes" : {
                        "POSITION" : 4,
                        "NORMAL" : 5,
                        "TEXCOORD_0" : 6
                    },
                    "indices" : 7,
                    "material" : 0
                }
            ]
        },
        {
            "name" : "22DSANPST013SJ.005",
            "primitives" : [
                {
                    "attributes" : {
                        "POSITION" : 8,
                        "NORMAL" : 9,
                        "TEXCOORD_0" : 10
                    },
                    "indices" : 11,
                    "material" : 1
                }
            ]
        },
        {
            "name" : "22DSANPST013SJ.006",
            "primitives" : [
                {
                    "attributes" : {
                        "POSITION" : 12,
                        "NORMAL" : 13,
                        "TEXCOORD_0" : 14
                    },
                    "indices" : 15,
                    "material" : 2
                }
            ]
        },
        {
            "name" : "22DSANPST013SJ.007",
            "primitives" : [
                {
                    "attributes" : {
                        "POSITION" : 16,
                        "NORMAL" : 17,
                        "TEXCOORD_0" : 18
                    },
                    "indices" : 19,
                    "material" : 0
                }
            ]
        }
    ],
    "accessors" : [
        {
            "bufferView" : 0,
            "componentType" : 5126,
            "count" : 1871,
            "max" : [
                7.628540515899658,
                22.39850616455078,
                5.156342506408691
            ],
            "min" : [
                -8.491504669189453,
                -23.429731369018555,
                -0.3550560176372528
            ],
            "type" : "VEC3"
        },
        {
            "bufferView" : 1,
            "componentType" : 5126,
            "count" : 1871,
            "type" : "VEC3"
        },
        {
            "bufferView" : 2,
            "componentType" : 5126,
            "count" : 1871,
            "type" : "VEC2"
        },
        {
            "bufferView" : 3,
            "componentType" : 5123,
            "count" : 10908,
            "type" : "SCALAR"
        },
        {
            "bufferView" : 4,
            "componentType" : 5126,
            "count" : 664,
            "max" : [
                0.2865918278694153,
                7.972122669219971,
                2.1971588134765625
            ],
            "min" : [
                -0.7363376617431641,
                0.7548428177833557,
                1.4667789936065674
            ],
            "type" : "VEC3"
        },
        {
            "bufferView" : 5,
            "componentType" : 5126,
            "count" : 664,
            "type" : "VEC3"
        },
        {
            "bufferView" : 6,
            "componentType" : 5126,
            "count" : 664,
            "type" : "VEC2"
        },
        {
            "bufferView" : 7,
            "componentType" : 5123,
            "count" : 2949,
            "type" : "SCALAR"
        },
        {
            "bufferView" : 8,
            "componentType" : 5126,
            "count" : 29008,
            "max" : [
                4.864593505859375,
                18.19148826599121,
                1.909706711769104
            ],
            "min" : [
                -5.732050895690918,
                -18.340770721435547,
                -0.5265756249427795
            ],
            "type" : "VEC3"
        },
        {
            "bufferView" : 9,
            "componentType" : 5126,
            "count" : 29008,
            "type" : "VEC3"
        },
        {
            "bufferView" : 10,
            "componentType" : 5126,
            "count" : 29008,
            "type" : "VEC2"
        },
        {
            "bufferView" : 11,
            "componentType" : 5123,
            "count" : 46746,
            "type" : "SCALAR"
        },
        {
            "bufferView" : 12,
            "componentType" : 5126,
            "count" : 4316,
            "max" : [
                5.7767510414123535,
                19.971261978149414,
                2.050861120223999
            ],
            "min" : [
                -6.653360843658447,
                -20.071834564208984,
                -0.6280588507652283
            ],
            "type" : "VEC3"
        },
        {
            "bufferView" : 13,
            "componentType" : 5126,
            "count" : 4316,
            "type" : "VEC3"
        },
        {
            "bufferView" : 14,
            "componentType" : 5126,
            "count" : 4316,
            "type" : "VEC2"
        },
        {
            "bufferView" : 15,
            "componentType" : 5123,
            "count" : 17043,
            "type" : "SCALAR"
        },
        {
            "bufferView" : 16,
            "componentType" : 5126,
            "count" : 8918,
            "max" : [
                38.63078308105469,
                -12.802506446838379,
                4.798117160797119
            ],
            "min" : [
                -41.35622024536133,
                -88.32657623291016,
                1.6566919088363647
            ],
            "type" : "VEC3"
        },
        {
            "bufferView" : 17,
            "componentType" : 5126,
            "count" : 8918,
            "type" : "VEC3"
        },
        {
            "bufferView" : 18,
            "componentType" : 5126,
            "count" : 8918,
            "type" : "VEC2"
        },
        {
            "bufferView" : 19,
            "componentType" : 5123,
            "count" : 38676,
            "type" : "SCALAR"
        }
    ],
    "bufferViews" : [
        {
            "buffer" : 0,
            "byteLength" : 22452,
            "byteOffset" : 0
        },
        {
            "buffer" : 0,
            "byteLength" : 22452,
            "byteOffset" : 22452
        },
        {
            "buffer" : 0,
            "byteLength" : 14968,
            "byteOffset" : 44904
        },
        {
            "buffer" : 0,
            "byteLength" : 21816,
            "byteOffset" : 59872
        },
        {
            "buffer" : 0,
            "byteLength" : 7968,
            "byteOffset" : 81688
        },
        {
            "buffer" : 0,
            "byteLength" : 7968,
            "byteOffset" : 89656
        },
        {
            "buffer" : 0,
            "byteLength" : 5312,
            "byteOffset" : 97624
        },
        {
            "buffer" : 0,
            "byteLength" : 5898,
            "byteOffset" : 102936
        },
        {
            "buffer" : 0,
            "byteLength" : 348096,
            "byteOffset" : 108836
        },
        {
            "buffer" : 0,
            "byteLength" : 348096,
            "byteOffset" : 456932
        },
        {
            "buffer" : 0,
            "byteLength" : 232064,
            "byteOffset" : 805028
        },
        {
            "buffer" : 0,
            "byteLength" : 93492,
            "byteOffset" : 1037092
        },
        {
            "buffer" : 0,
            "byteLength" : 51792,
            "byteOffset" : 1130584
        },
        {
            "buffer" : 0,
            "byteLength" : 51792,
            "byteOffset" : 1182376
        },
        {
            "buffer" : 0,
            "byteLength" : 34528,
            "byteOffset" : 1234168
        },
        {
            "buffer" : 0,
            "byteLength" : 34086,
            "byteOffset" : 1268696
        },
        {
            "buffer" : 0,
            "byteLength" : 107016,
            "byteOffset" : 1302784
        },
        {
            "buffer" : 0,
            "byteLength" : 107016,
            "byteOffset" : 1409800
        },
        {
            "buffer" : 0,
            "byteLength" : 71344,
            "byteOffset" : 1516816
        },
        {
            "buffer" : 0,
            "byteLength" : 77352,
            "byteOffset" : 1588160
        }
    ],
    "buffers" : [
        {
            "byteLength" : 1665512,
            "uri" : "data:application/octet-stream;base64,"
        }
    ]
}
