{
    "asset" : {
        "generator" : "Khronos glTF Blender I/O v1.7.33",
        "version" : "2.0"
    },
    "extensionsUsed" : [
        "KHR_materials_transmission"
    ],
    "scene" : 0,
    "scenes" : [
        {
            "name" : "Scene",
            "nodes" : [
                0,
                1,
                2,
                3,
                4
            ]
        }
    ],
    "nodes" : [
        {
            "mesh" : 0,
            "name" : "22DSANPST013SJ.008",
            "rotation" : [
                -0.9999785423278809,
                0,
                0,
                -0.006549593526870012
            ],
            "scale" : [
                0.012482364661991596,
                0.012482364661991596,
                0.012482364661991596
            ]
        },
        {
            "mesh" : 1,
            "name" : "22DSANPST013SJ.009",
            "rotation" : [
                -0.9999785423278809,
                0,
                0,
                -0.006549593526870012
            ],
            "scale" : [
                0.02146659977734089,
                0.02146659977734089,
                0.02146659977734089
            ]
        },
        {
            "mesh" : 2,
            "name" : "22DSANPST013SJ.010",
            "rotation" : [
                -0.9999785423278809,
                0,
                0,
                -0.006549593526870012
            ],
            "scale" : [
                0.012482364661991596,
                0.012482364661991596,
                0.012482364661991596
            ]
        },
        {
            "mesh" : 3,
            "name" : "22DSANPST013SJ.011",
            "rotation" : [
                -0.9999785423278809,
                0,
                0,
                -0.006549593526870012
            ],
            "scale" : [
                0.012482364661991596,
                0.012482364661991596,
                0.012482364661991596
            ]
        },
        {
            "mesh" : 4,
            "name" : "22DSANPST013SJ.012",
            "rotation" : [
                -0.9999785423278809,
                0,
                0,
                -0.006549593526870012
            ],
            "scale" : [
                0.01666182093322277,
                0.02146659605205059,
                0.02146659605205059
            ]
        }
    ],
    "materials" : [
        {
            "doubleSided" : true,
            "name" : "18KT new Y gold",
            "pbrMetallicRoughness" : {
                "baseColorFactor" : [
                    0.6795421838760376,
                    0.42326730489730835,
                    0.054480403661727905,
                    1
                ],
                "roughnessFactor" : 0
            }
        },
        {
            "emissiveFactor" : [
                0.15000000596046448,
                0.15000000596046448,
                0.15000000596046448
            ],
            "extensions" : {
                "KHR_materials_transmission" : {
                    "transmissionFactor" : 1
                }
            },
            "name" : "Diamond",
            "pbrMetallicRoughness" : {
                "metallicFactor" : 0.8854166865348816,
                "roughnessFactor" : 0
            }
        },
        {
            "doubleSided" : true,
            "name" : "material_0",
            "pbrMetallicRoughness" : {
                "roughnessFactor" : 0.23883679509162903
            }
        }
    ],
    "meshes" : [
        {
            "name" : "22DSANPST013SJ.008",
            "primitives" : [
                {
                    "attributes" : {
                        "POSITION" : 0,
                        "NORMAL" : 1,
                        "TEXCOORD_0" : 2
                    },
                    "indices" : 3,
                    "material" : 0
                }
            ]
        },
        {
            "name" : "22DSANPST013SJ.009",
            "primitives" : [
                {
                    "attributes" : {
                        "POSITION" : 4,
                        "NORMAL" : 5,
                        "TEXCOORD_0" : 6
                    },
                    "indices" : 7,
                    "material" : 0
                }
            ]
        },
        {
            "name" : "22DSANPST013SJ.010",
            "primitives" : [
                {
                    "attributes" : {
                        "POSITION" : 8,
                        "NORMAL" : 9,
                        "TEXCOORD_0" : 10
                    },
                    "indices" : 11,
                    "material" : 1
                }
            ]
        },
        {
            "name" : "22DSANPST013SJ.011",
            "primitives" : [
                {
                    "attributes" : {
                        "POSITION" : 12,
                        "NORMAL" : 13,
                        "TEXCOORD_0" : 14
                    },
                    "indices" : 15,
                    "material" : 2
                }
            ]
        },
        {
            "name" : "22DSANPST013SJ.012",
            "primitives" : [
                {
                    "attributes" : {
                        "POSITION" : 16,
                        "NORMAL" : 17,
                        "TEXCOORD_0" : 18
                    },
                    "indices" : 19,
                    "material" : 0
                }
            ]
        }
    ],
    "accessors" : [
        {
            "bufferView" : 0,
            "componentType" : 5126,
            "count" : 1872,
            "max" : [
                7.595655918121338,
                203.24090576171875,
                7.525770664215088
            ],
            "min" : [
                -8.536157608032227,
                157.4471893310547,
                2.0141844749450684
            ],
            "type" : "VEC3"
        },
        {
            "bufferView" : 1,
            "componentType" : 5126,
            "count" : 1872,
            "type" : "VEC3"
        },
        {
            "bufferView" : 2,
            "componentType" : 5126,
            "count" : 1872,
            "type" : "VEC2"
        },
        {
            "bufferView" : 3,
            "componentType" : 5123,
            "count" : 10905,
            "type" : "SCALAR"
        },
        {
            "bufferView" : 4,
            "componentType" : 5126,
            "count" : 663,
            "max" : [
                0.27773213386535645,
                113.11046600341797,
                3.568697690963745
            ],
            "min" : [
                -0.7898232936859131,
                105.93000030517578,
                2.836189031600952
            ],
            "type" : "VEC3"
        },
        {
            "bufferView" : 5,
            "componentType" : 5126,
            "count" : 663,
            "type" : "VEC3"
        },
        {
            "bufferView" : 6,
            "componentType" : 5126,
            "count" : 663,
            "type" : "VEC2"
        },
        {
            "bufferView" : 7,
            "componentType" : 5123,
            "count" : 2952,
            "type" : "SCALAR"
        },
        {
            "bufferView" : 8,
            "componentType" : 5126,
            "count" : 29008,
            "max" : [
                4.793318748474121,
                199.0616455078125,
                4.279135704040527
            ],
            "min" : [
                -5.803325653076172,
                162.52938842773438,
                1.842853307723999
            ],
            "type" : "VEC3"
        },
        {
            "bufferView" : 9,
            "componentType" : 5126,
            "count" : 29008,
            "type" : "VEC3"
        },
        {
            "bufferView" : 10,
            "componentType" : 5126,
            "count" : 29008,
            "type" : "VEC2"
        },
        {
            "bufferView" : 11,
            "componentType" : 5123,
            "count" : 46746,
            "type" : "SCALAR"
        },
        {
            "bufferView" : 12,
            "componentType" : 5126,
            "count" : 4324,
            "max" : [
                5.706382751464844,
                200.8416748046875,
                4.4203362464904785
            ],
            "min" : [
                -6.724632740020752,
                160.78909301757812,
                1.7546777725219727
            ],
            "type" : "VEC3"
        },
        {
            "bufferView" : 13,
            "componentType" : 5126,
            "count" : 4324,
            "type" : "VEC3"
        },
        {
            "bufferView" : 14,
            "componentType" : 5126,
            "count" : 4324,
            "type" : "VEC2"
        },
        {
            "bufferView" : 15,
            "componentType" : 5123,
            "count" : 17043,
            "type" : "SCALAR"
        },
        {
            "bufferView" : 16,
            "componentType" : 5126,
            "count" : 8902,
            "max" : [
                38.62736129760742,
                92.35377502441406,
                6.158205032348633
            ],
            "min" : [
                -41.397804260253906,
                16.83347511291504,
                3.0399560928344727
            ],
            "type" : "VEC3"
        },
        {
            "bufferView" : 17,
            "componentType" : 5126,
            "count" : 8902,
            "type" : "VEC3"
        },
        {
            "bufferView" : 18,
            "componentType" : 5126,
            "count" : 8902,
            "type" : "VEC2"
        },
        {
            "bufferView" : 19,
            "componentType" : 5123,
            "count" : 38676,
            "type" : "SCALAR"
        }
    ],
    "bufferViews" : [
        {
            "buffer" : 0,
            "byteLength" : 22464,
            "byteOffset" : 0
        },
        {
            "buffer" : 0,
            "byteLength" : 22464,
            "byteOffset" : 22464
        },
        {
            "buffer" : 0,
            "byteLength" : 14976,
            "byteOffset" : 44928
        },
        {
            "buffer" : 0,
            "byteLength" : 21810,
            "byteOffset" : 59904
        },
        {
            "buffer" : 0,
            "byteLength" : 7956,
            "byteOffset" : 81716
        },
        {
            "buffer" : 0,
            "byteLength" : 7956,
            "byteOffset" : 89672
        },
        {
            "buffer" : 0,
            "byteLength" : 5304,
            "byteOffset" : 97628
        },
        {
            "buffer" : 0,
            "byteLength" : 5904,
            "byteOffset" : 102932
        },
        {
            "buffer" : 0,
            "byteLength" : 348096,
            "byteOffset" : 108836
        },
        {
            "buffer" : 0,
            "byteLength" : 348096,
            "byteOffset" : 456932
        },
        {
            "buffer" : 0,
            "byteLength" : 232064,
            "byteOffset" : 805028
        },
        {
            "buffer" : 0,
            "byteLength" : 93492,
            "byteOffset" : 1037092
        },
        {
            "buffer" : 0,
            "byteLength" : 51888,
            "byteOffset" : 1130584
        },
        {
            "buffer" : 0,
            "byteLength" : 51888,
            "byteOffset" : 1182472
        },
        {
            "buffer" : 0,
            "byteLength" : 34592,
            "byteOffset" : 1234360
        },
        {
            "buffer" : 0,
            "byteLength" : 34086,
            "byteOffset" : 1268952
        },
        {
            "buffer" : 0,
            "byteLength" : 106824,
            "byteOffset" : 1303040
        },
        {
            "buffer" : 0,
            "byteLength" : 106824,
            "byteOffset" : 1409864
        },
        {
            "buffer" : 0,
            "byteLength" : 71216,
            "byteOffset" : 1516688
        },
        {
            "buffer" : 0,
            "byteLength" : 77352,
            "byteOffset" : 1587904
        }
    ],
    "buffers" : [
        {
            "byteLength" : 1665256,
            "uri" : "data:application/octet-stream;base64,"
        }
    ]
}
