{
    "asset" : {
        "generator" : "Khronos glTF Blender I/O v1.7.33",
        "version" : "2.0"
    },
    "extensionsUsed" : [
        "KHR_materials_transmission"
    ],
    "scene" : 0,
    "scenes" : [
        {
            "name" : "Scene",
            "nodes" : [
                20
            ]
        }
    ],
    "nodes" : [
        {
            "mesh" : 0,
            "name" : "Object_4"
        },
        {
            "children" : [
                0
            ],
            "name" : "Circle_001_0",
            "scale" : [
                1.0157519578933716,
                1.0192557573318481,
                0.8653239011764526
            ],
            "translation" : [
                0,
                0.0006883979658596218,
                0
            ]
        },
        {
            "mesh" : 1,
            "name" : "Object_6"
        },
        {
            "children" : [
                2
            ],
            "name" : "Circle_002_1"
        },
        {
            "mesh" : 2,
            "name" : "Object_8"
        },
        {
            "mesh" : 3,
            "name" : "Object_9"
        },
        {
            "children" : [
                4,
                5
            ],
            "name" : "Circle_004_2"
        },
        {
            "mesh" : 4,
            "name" : "Object_19"
        },
        {
            "children" : [
                7
            ],
            "name" : "Circle_7"
        },
        {
            "mesh" : 5,
            "name" : "Object_13"
        },
        {
            "children" : [
                9
            ],
            "name" : "dobj_001_4"
        },
        {
            "name" : "dobj_003_5",
            "rotation" : [
                0.12910564243793488,
                0.17371776700019836,
                -0.43744152784347534,
                0.8728108406066895
            ],
            "translation" : [
                0.036321572959423065,
                -0.07092896103858948,
                0.0004386773507576436
            ]
        },
        {
            "mesh" : 6,
            "name" : "Object_11"
        },
        {
            "children" : [
                12
            ],
            "name" : "dobj_3",
            "rotation" : [
                0.7071068286895752,
                0,
                0,
                0.7071067094802856
            ],
            "scale" : [
                0.41415223479270935,
                0.4141522943973541,
                0.4141522943973541
            ],
            "translation" : [
                5.5732016335241497e-05,
                0.10281044989824295,
                -0.00019096172763966024
            ]
        },
        {
            "mesh" : 7,
            "name" : "Object_17"
        },
        {
            "children" : [
                14
            ],
            "name" : "Prong_001_6",
            "rotation" : [
                0.7071068286895752,
                0,
                0,
                0.7071067094802856
            ],
            "scale" : [
                0.009999999776482582,
                0.009999998845160007,
                0.009999998845160007
            ]
        },
        {
            "children" : [
                1,
                3,
                6,
                8,
                10,
                11,
                13,
                15
            ],
            "name" : "GLTF_SceneRootNode",
            "rotation" : [
                0.7071068286895752,
                0,
                0,
                0.7071067094802856
            ]
        },
        {
            "children" : [
                16
            ],
            "name" : "root"
        },
        {
            "children" : [
                17
            ],
            "name" : "Sketchfab_model",
            "rotation" : [
                -0.7071068286895752,
                0,
                0,
                0.7071067094802856
            ]
        },
        {
            "children" : [
                18
            ],
            "name" : "Meshes"
        },
        {
            "children" : [
                19
            ],
            "name" : "scene",
            "rotation" : [
                0.7071067094802856,
                0,
                0,
                0.7071068286895752
            ],
            "scale" : [
                29.632707595825195,
                29.632707595825195,
                29.632707595825195
            ],
            "translation" : [
                8.398882865905762,
                -0.5601893663406372,
                0
            ]
        }
    ],
    "materials" : [
        {
            "doubleSided" : true,
            "name" : "White_Gold",
            "pbrMetallicRoughness" : {
                "baseColorFactor" : [
                    0.9254900217056274,
                    0.9254900217056274,
                    0.9254900217056274,
                    1
                ],
                "roughnessFactor" : 0.20235575735569
            }
        },
        {
            "doubleSided" : true,
            "name" : "material_0",
            "pbrMetallicRoughness" : {
                "roughnessFactor" : 0.23883679509162903
            }
        },
        {
            "doubleSided" : true,
            "name" : "White_Gold_2",
            "pbrMetallicRoughness" : {
                "baseColorFactor" : [
                    0.2903871536254883,
                    0.2903871536254883,
                    0.2903871536254883,
                    1
                ],
                "roughnessFactor" : 0.20000000298023224
            }
        },
        {
            "extensions" : {
                "KHR_materials_transmission" : {
                    "transmissionFactor" : 1
                }
            },
            "name" : "Diamond",
            "pbrMetallicRoughness" : {
                "roughnessFactor" : 0
            }
        }
    ],
    "meshes" : [
        {
            "name" : "Object_0",
            "primitives" : [
                {
                    "attributes" : {
                        "POSITION" : 0,
                        "NORMAL" : 1
                    },
                    "indices" : 2,
                    "material" : 0
                }
            ]
        },
        {
            "name" : "Object_1",
            "primitives" : [
                {
                    "attributes" : {
                        "POSITION" : 3,
                        "NORMAL" : 4
                    },
                    "indices" : 5,
                    "material" : 1
                }
            ]
        },
        {
            "name" : "Object_2",
            "primitives" : [
                {
                    "attributes" : {
                        "POSITION" : 6,
                        "NORMAL" : 7
                    },
                    "indices" : 8,
                    "material" : 0
                }
            ]
        },
        {
            "name" : "Object_3",
            "primitives" : [
                {
                    "attributes" : {
                        "POSITION" : 9,
                        "NORMAL" : 10
                    },
                    "indices" : 11,
                    "material" : 2
                }
            ]
        },
        {
            "name" : "Object_8",
            "primitives" : [
                {
                    "attributes" : {
                        "POSITION" : 12,
                        "NORMAL" : 13
                    },
                    "indices" : 14,
                    "material" : 1
                }
            ]
        },
        {
            "name" : "Object_5",
            "primitives" : [
                {
                    "attributes" : {
                        "POSITION" : 15,
                        "NORMAL" : 16,
                        "TEXCOORD_0" : 17
                    },
                    "indices" : 18,
                    "material" : 3
                }
            ]
        },
        {
            "name" : "Object_4",
            "primitives" : [
                {
                    "attributes" : {
                        "POSITION" : 19,
                        "NORMAL" : 20,
                        "TEXCOORD_0" : 21
                    },
                    "indices" : 22,
                    "material" : 3
                }
            ]
        },
        {
            "name" : "Object_7",
            "primitives" : [
                {
                    "attributes" : {
                        "POSITION" : 23,
                        "NORMAL" : 24
                    },
                    "indices" : 25,
                    "material" : 0
                }
            ]
        }
    ],
    "accessors" : [
        {
            "bufferView" : 0,
            "componentType" : 5126,
            "count" : 38760,
            "max" : [
                0.09530143439769745,
                0.09832452237606049,
                0.004494121763855219
            ],
            "min" : [
                -0.09530039131641388,
                -0.09227130562067032,
                -0.004494121763855219
            ],
            "type" : "VEC3"
        },
        {
            "bufferView" : 1,
            "componentType" : 5126,
            "count" : 38760,
            "type" : "VEC3"
        },
        {
            "bufferView" : 2,
            "componentType" : 5123,
            "count" : 138054,
            "type" : "SCALAR"
        },
        {
            "bufferView" : 3,
            "componentType" : 5126,
            "count" : 4352,
            "max" : [
                0.09530733525753021,
                0.09832452237606049,
                0.004494121763855219
            ],
            "min" : [
                -0.09530628472566605,
                -0.09227605164051056,
                -0.004494121763855219
            ],
            "type" : "VEC3"
        },
        {
            "bufferView" : 4,
            "componentType" : 5126,
            "count" : 4352,
            "type" : "VEC3"
        },
        {
            "bufferView" : 5,
            "componentType" : 5123,
            "count" : 24576,
            "type" : "SCALAR"
        },
        {
            "bufferView" : 6,
            "componentType" : 5126,
            "count" : 5031,
            "max" : [
                0.09433624893426895,
                0.09875743091106415,
                0.015994492918252945
            ],
            "min" : [
                -0.09433624893426895,
                -0.09113124012947083,
                -0.015994492918252945
            ],
            "type" : "VEC3"
        },
        {
            "bufferView" : 7,
            "componentType" : 5126,
            "count" : 5031,
            "type" : "VEC3"
        },
        {
            "bufferView" : 8,
            "componentType" : 5123,
            "count" : 17265,
            "type" : "SCALAR"
        },
        {
            "bufferView" : 9,
            "componentType" : 5126,
            "count" : 390,
            "max" : [
                0.04647567495703697,
                -0.03786684200167656,
                0.010992116294801235
            ],
            "min" : [
                -0.07183027267456055,
                -0.07689151912927628,
                -0.010391389951109886
            ],
            "type" : "VEC3"
        },
        {
            "bufferView" : 10,
            "componentType" : 5126,
            "count" : 390,
            "type" : "VEC3"
        },
        {
            "bufferView" : 11,
            "componentType" : 5123,
            "count" : 1119,
            "type" : "SCALAR"
        },
        {
            "bufferView" : 12,
            "componentType" : 5126,
            "count" : 3072,
            "max" : [
                0.09560387581586838,
                0.09500569105148315,
                0.014107007533311844
            ],
            "min" : [
                -0.09560387581586838,
                0.006467968225479126,
                -0.014107007533311844
            ],
            "type" : "VEC3"
        },
        {
            "bufferView" : 13,
            "componentType" : 5126,
            "count" : 3072,
            "type" : "VEC3"
        },
        {
            "bufferView" : 14,
            "componentType" : 5123,
            "count" : 17280,
            "type" : "SCALAR"
        },
        {
            "bufferView" : 15,
            "componentType" : 5126,
            "count" : 27192,
            "max" : [
                0.09307582676410675,
                0.09408354014158249,
                0.013401893898844719
            ],
            "min" : [
                -0.09307582676410675,
                0.008271178230643272,
                -0.013401893898844719
            ],
            "type" : "VEC3"
        },
        {
            "bufferView" : 16,
            "componentType" : 5126,
            "count" : 27192,
            "type" : "VEC3"
        },
        {
            "bufferView" : 17,
            "componentType" : 5126,
            "count" : 27192,
            "type" : "VEC2"
        },
        {
            "bufferView" : 18,
            "componentType" : 5123,
            "count" : 27192,
            "type" : "SCALAR"
        },
        {
            "bufferView" : 19,
            "componentType" : 5126,
            "count" : 809,
            "max" : [
                0.0359780378639698,
                0.035978034138679504,
                0.03156238794326782
            ],
            "min" : [
                -0.0359780378639698,
                -0.035978034138679504,
                -0.012330830097198486
            ],
            "type" : "VEC3"
        },
        {
            "bufferView" : 20,
            "componentType" : 5126,
            "count" : 809,
            "type" : "VEC3"
        },
        {
            "bufferView" : 21,
            "componentType" : 5126,
            "count" : 809,
            "type" : "VEC2"
        },
        {
            "bufferView" : 22,
            "componentType" : 5123,
            "count" : 810,
            "type" : "SCALAR"
        },
        {
            "bufferView" : 23,
            "componentType" : 5126,
            "count" : 295,
            "max" : [
                1.8197522163391113,
                1.8168925046920776,
                -8.023819923400879
            ],
            "min" : [
                -1.8197522163391113,
                -1.8221086263656616,
                -10.565932273864746
            ],
            "type" : "VEC3"
        },
        {
            "bufferView" : 24,
            "componentType" : 5126,
            "count" : 295,
            "type" : "VEC3"
        },
        {
            "bufferView" : 25,
            "componentType" : 5123,
            "count" : 1407,
            "type" : "SCALAR"
        }
    ],
    "bufferViews" : [
        {
            "buffer" : 0,
            "byteLength" : 465120,
            "byteOffset" : 0
        },
        {
            "buffer" : 0,
            "byteLength" : 465120,
            "byteOffset" : 465120
        },
        {
            "buffer" : 0,
            "byteLength" : 276108,
            "byteOffset" : 930240
        },
        {
            "buffer" : 0,
            "byteLength" : 52224,
            "byteOffset" : 1206348
        },
        {
            "buffer" : 0,
            "byteLength" : 52224,
            "byteOffset" : 1258572
        },
        {
            "buffer" : 0,
            "byteLength" : 49152,
            "byteOffset" : 1310796
        },
        {
            "buffer" : 0,
            "byteLength" : 60372,
            "byteOffset" : 1359948
        },
        {
            "buffer" : 0,
            "byteLength" : 60372,
            "byteOffset" : 1420320
        },
        {
            "buffer" : 0,
            "byteLength" : 34530,
            "byteOffset" : 1480692
        },
        {
            "buffer" : 0,
            "byteLength" : 4680,
            "byteOffset" : 1515224
        },
        {
            "buffer" : 0,
            "byteLength" : 4680,
            "byteOffset" : 1519904
        },
        {
            "buffer" : 0,
            "byteLength" : 2238,
            "byteOffset" : 1524584
        },
        {
            "buffer" : 0,
            "byteLength" : 36864,
            "byteOffset" : 1526824
        },
        {
            "buffer" : 0,
            "byteLength" : 36864,
            "byteOffset" : 1563688
        },
        {
            "buffer" : 0,
            "byteLength" : 34560,
            "byteOffset" : 1600552
        },
        {
            "buffer" : 0,
            "byteLength" : 326304,
            "byteOffset" : 1635112
        },
        {
            "buffer" : 0,
            "byteLength" : 326304,
            "byteOffset" : 1961416
        },
        {
            "buffer" : 0,
            "byteLength" : 217536,
            "byteOffset" : 2287720
        },
        {
            "buffer" : 0,
            "byteLength" : 54384,
            "byteOffset" : 2505256
        },
        {
            "buffer" : 0,
            "byteLength" : 9708,
            "byteOffset" : 2559640
        },
        {
            "buffer" : 0,
            "byteLength" : 9708,
            "byteOffset" : 2569348
        },
        {
            "buffer" : 0,
            "byteLength" : 6472,
            "byteOffset" : 2579056
        },
        {
            "buffer" : 0,
            "byteLength" : 1620,
            "byteOffset" : 2585528
        },
        {
            "buffer" : 0,
            "byteLength" : 3540,
            "byteOffset" : 2587148
        },
        {
            "buffer" : 0,
            "byteLength" : 3540,
            "byteOffset" : 2590688
        },
        {
            "buffer" : 0,
            "byteLength" : 2814,
            "byteOffset" : 2594228
        }
    ],
    "buffers" : [
        {
            "byteLength" : 2597044,
            "uri" : "data:application/octet-stream;base64,"
        }
    ]
}
