{
    "asset" : {
        "generator" : "Khronos glTF Blender I/O v3.3.32",
        "version" : "2.0"
    },
    "extensionsUsed" : [
        "KHR_materials_transmission",
        "KHR_materials_specular",
        "KHR_materials_ior"
    ],
    "scene" : 0,
    "scenes" : [
        {
            "name" : "Scene",
            "nodes" : [
                18
            ]
        }
    ],
    "nodes" : [
        {
            "mesh" : 0,
            "name" : "Object_4",
            "translation" : [
                -7.873678987380117e-05,
                -0.0006753926281817257,
                -0.0003839311539195478
            ]
        },
        {
            "children" : [
                0
            ],
            "name" : "Circle_001_0",
            "scale" : [
                1.0157519578933716,
                1.0192557573318481,
                0.8653238415718079
            ],
            "translation" : [
                0,
                0.0006883979658596218,
                0
            ]
        },
        {
            "mesh" : 1,
            "name" : "Object_6",
            "translation" : [
                -7.997704960871488e-05,
                0,
                -0.00033222485217265785
            ]
        },
        {
            "children" : [
                2
            ],
            "name" : "Circle_002_1"
        },
        {
            "mesh" : 2,
            "name" : "Object_8",
            "translation" : [
                -7.997704960871488e-05,
                0,
                -0.00033222485217265785
            ]
        },
        {
            "children" : [
                4
            ],
            "name" : "Circle_004_2"
        },
        {
            "mesh" : 3,
            "name" : "Object_19",
            "translation" : [
                -7.997704960871488e-05,
                0,
                -0.00033222485217265785
            ]
        },
        {
            "children" : [
                6
            ],
            "name" : "Circle_7"
        },
        {
            "mesh" : 4,
            "name" : "Object_13",
            "translation" : [
                -7.997704960871488e-05,
                0,
                -0.00033222485217265785
            ]
        },
        {
            "children" : [
                8
            ],
            "name" : "dobj_001_4"
        },
        {
            "name" : "dobj_003_5",
            "rotation" : [
                0.12910564243793488,
                0.17371775209903717,
                -0.43744152784347534,
                0.8728108406066895
            ],
            "translation" : [
                0.036321572959423065,
                -0.07092895358800888,
                0.0004386773216538131
            ]
        },
        {
            "mesh" : 5,
            "name" : "Object_11",
            "translation" : [
                -0.0003276791831012815,
                -0.000341056555043906,
                0.24824313819408417
            ]
        },
        {
            "children" : [
                11
            ],
            "name" : "dobj_3",
            "rotation" : [
                0.7071068286895752,
                0,
                0,
                0.7071067094802856
            ],
            "scale" : [
                0.41415223479270935,
                0.41415223479270935,
                0.41415223479270935
            ],
            "translation" : [
                5.5732016335241497e-05,
                0.10281044989824295,
                -0.00019096172763966024
            ]
        },
        {
            "mesh" : 6,
            "name" : "Object_17",
            "rotation" : [
                0.7071068286895752,
                0,
                0,
                0.7071067094802856
            ],
            "scale" : [
                0.009999999776482582,
                0.009999997913837433,
                0.009999997913837433
            ],
            "translation" : [
                -7.997704960871488e-05,
                0,
                -0.00033222485217265785
            ]
        },
        {
            "children" : [
                1,
                3,
                5,
                7,
                9,
                10,
                12,
                13
            ],
            "name" : "GLTF_SceneRootNode",
            "rotation" : [
                0.7071068286895752,
                0,
                0,
                0.7071067094802856
            ]
        },
        {
            "children" : [
                14
            ],
            "name" : "root"
        },
        {
            "children" : [
                15
            ],
            "name" : "Sketchfab_model",
            "rotation" : [
                -0.7071068286895752,
                0,
                0,
                0.7071067094802856
            ]
        },
        {
            "children" : [
                16
            ],
            "name" : "Meshes"
        },
        {
            "children" : [
                17
            ],
            "name" : "scene",
            "rotation" : [
                0.7071066498756409,
                0,
                0,
                0.70710688829422
            ],
            "scale" : [
                23.53130531311035,
                23.53130340576172,
                23.53130340576172
            ],
            "translation" : [
                0.002369936555624008,
                -0.009844720363616943,
                0
            ]
        }
    ],
    "materials" : [
        {
            "doubleSided" : true,
            "name" : "White_Gold",
            "pbrMetallicRoughness" : {
                "baseColorFactor" : [
                    0.9254900217056274,
                    0.9254900217056274,
                    0.9254900217056274,
                    1
                ],
                "roughnessFactor" : 0.20235575735569
            }
        },
        {
            "doubleSided" : true,
            "name" : "material_0",
            "pbrMetallicRoughness" : {
                "roughnessFactor" : 0.23883679509162903
            }
        },
        {
            "emissiveFactor" : [
                0.15000000596046448,
                0.15000000596046448,
                0.15000000596046448
            ],
            "extensions" : {
                "KHR_materials_transmission" : {
                    "transmissionFactor" : 1
                },
                "KHR_materials_specular" : {
                    "specularColorFactor" : [
                        1,
                        1,
                        1
                    ]
                },
                "KHR_materials_ior" : {
                    "ior" : 2.4200000762939453
                }
            },
            "name" : "Diamond",
            "pbrMetallicRoughness" : {
                "metallicFactor" : 0.8854166865348816,
                "roughnessFactor" : 0
            }
        }
    ],
    "meshes" : [
        {
            "name" : "Object_0",
            "primitives" : [
                {
                    "attributes" : {
                        "POSITION" : 0,
                        "NORMAL" : 1
                    },
                    "indices" : 2,
                    "material" : 0
                }
            ]
        },
        {
            "name" : "Object_1",
            "primitives" : [
                {
                    "attributes" : {
                        "POSITION" : 3,
                        "NORMAL" : 4
                    },
                    "indices" : 5,
                    "material" : 1
                }
            ]
        },
        {
            "name" : "Object_2",
            "primitives" : [
                {
                    "attributes" : {
                        "POSITION" : 6,
                        "NORMAL" : 7
                    },
                    "indices" : 8,
                    "material" : 0
                }
            ]
        },
        {
            "name" : "Object_8",
            "primitives" : [
                {
                    "attributes" : {
                        "POSITION" : 9,
                        "NORMAL" : 10
                    },
                    "indices" : 11,
                    "material" : 1
                }
            ]
        },
        {
            "name" : "Object_5",
            "primitives" : [
                {
                    "attributes" : {
                        "POSITION" : 12,
                        "NORMAL" : 13,
                        "TEXCOORD_0" : 14
                    },
                    "indices" : 15,
                    "material" : 2
                }
            ]
        },
        {
            "name" : "Object_4",
            "primitives" : [
                {
                    "attributes" : {
                        "POSITION" : 16,
                        "NORMAL" : 17,
                        "TEXCOORD_0" : 18
                    },
                    "indices" : 19,
                    "material" : 2
                }
            ]
        },
        {
            "name" : "Object_7",
            "primitives" : [
                {
                    "attributes" : {
                        "POSITION" : 20,
                        "NORMAL" : 21
                    },
                    "indices" : 22,
                    "material" : 0
                }
            ]
        }
    ],
    "accessors" : [
        {
            "bufferView" : 0,
            "componentType" : 5126,
            "count" : 38760,
            "max" : [
                0.09538017213344574,
                0.09899991750717163,
                0.004878052975982428
            ],
            "min" : [
                -0.09522165358066559,
                -0.09159591048955917,
                -0.00411019055172801
            ],
            "type" : "VEC3"
        },
        {
            "bufferView" : 1,
            "componentType" : 5126,
            "count" : 38760,
            "type" : "VEC3"
        },
        {
            "bufferView" : 2,
            "componentType" : 5123,
            "count" : 138054,
            "type" : "SCALAR"
        },
        {
            "bufferView" : 3,
            "componentType" : 5126,
            "count" : 4352,
            "max" : [
                0.09538730978965759,
                0.09832452237606049,
                0.0048263464123010635
            ],
            "min" : [
                -0.09522631019353867,
                -0.09227605164051056,
                -0.004161897115409374
            ],
            "type" : "VEC3"
        },
        {
            "bufferView" : 4,
            "componentType" : 5126,
            "count" : 4352,
            "type" : "VEC3"
        },
        {
            "bufferView" : 5,
            "componentType" : 5123,
            "count" : 24576,
            "type" : "SCALAR"
        },
        {
            "bufferView" : 6,
            "componentType" : 5126,
            "count" : 5039,
            "max" : [
                0.09441622346639633,
                0.09875743091106415,
                0.016326718032360077
            ],
            "min" : [
                -0.09425627440214157,
                -0.09113124012947083,
                -0.015662267804145813
            ],
            "type" : "VEC3"
        },
        {
            "bufferView" : 7,
            "componentType" : 5126,
            "count" : 5039,
            "type" : "VEC3"
        },
        {
            "bufferView" : 8,
            "componentType" : 5123,
            "count" : 17265,
            "type" : "SCALAR"
        },
        {
            "bufferView" : 9,
            "componentType" : 5126,
            "count" : 3072,
            "max" : [
                0.09568385034799576,
                0.09500569105148315,
                0.014439232647418976
            ],
            "min" : [
                -0.095523901283741,
                0.006467968225479126,
                -0.013774782419204712
            ],
            "type" : "VEC3"
        },
        {
            "bufferView" : 10,
            "componentType" : 5126,
            "count" : 3072,
            "type" : "VEC3"
        },
        {
            "bufferView" : 11,
            "componentType" : 5123,
            "count" : 17280,
            "type" : "SCALAR"
        },
        {
            "bufferView" : 12,
            "componentType" : 5126,
            "count" : 27192,
            "max" : [
                0.09315580129623413,
                0.09408354014158249,
                0.013734119012951851
            ],
            "min" : [
                -0.09299585223197937,
                0.008271178230643272,
                -0.013069668784737587
            ],
            "type" : "VEC3"
        },
        {
            "bufferView" : 13,
            "componentType" : 5126,
            "count" : 27192,
            "type" : "VEC3"
        },
        {
            "bufferView" : 14,
            "componentType" : 5126,
            "count" : 27192,
            "type" : "VEC2"
        },
        {
            "bufferView" : 15,
            "componentType" : 5123,
            "count" : 27192,
            "type" : "SCALAR"
        },
        {
            "bufferView" : 16,
            "componentType" : 5126,
            "count" : 810,
            "max" : [
                0.03630571812391281,
                0.03631909191608429,
                -0.21668075025081635
            ],
            "min" : [
                -0.035650357604026794,
                -0.03563697636127472,
                -0.26057398319244385
            ],
            "type" : "VEC3"
        },
        {
            "bufferView" : 17,
            "componentType" : 5126,
            "count" : 810,
            "type" : "VEC3"
        },
        {
            "bufferView" : 18,
            "componentType" : 5126,
            "count" : 810,
            "type" : "VEC2"
        },
        {
            "bufferView" : 19,
            "componentType" : 5123,
            "count" : 810,
            "type" : "SCALAR"
        },
        {
            "bufferView" : 20,
            "componentType" : 5126,
            "count" : 295,
            "max" : [
                1.8277499675750732,
                1.8501149415969849,
                -8.023819923400879
            ],
            "min" : [
                -1.8117544651031494,
                -1.7888861894607544,
                -10.565932273864746
            ],
            "type" : "VEC3"
        },
        {
            "bufferView" : 21,
            "componentType" : 5126,
            "count" : 295,
            "type" : "VEC3"
        },
        {
            "bufferView" : 22,
            "componentType" : 5123,
            "count" : 1407,
            "type" : "SCALAR"
        }
    ],
    "bufferViews" : [
        {
            "buffer" : 0,
            "byteLength" : 465120,
            "byteOffset" : 0,
            "target" : 34962
        },
        {
            "buffer" : 0,
            "byteLength" : 465120,
            "byteOffset" : 465120,
            "target" : 34962
        },
        {
            "buffer" : 0,
            "byteLength" : 276108,
            "byteOffset" : 930240,
            "target" : 34963
        },
        {
            "buffer" : 0,
            "byteLength" : 52224,
            "byteOffset" : 1206348,
            "target" : 34962
        },
        {
            "buffer" : 0,
            "byteLength" : 52224,
            "byteOffset" : 1258572,
            "target" : 34962
        },
        {
            "buffer" : 0,
            "byteLength" : 49152,
            "byteOffset" : 1310796,
            "target" : 34963
        },
        {
            "buffer" : 0,
            "byteLength" : 60468,
            "byteOffset" : 1359948,
            "target" : 34962
        },
        {
            "buffer" : 0,
            "byteLength" : 60468,
            "byteOffset" : 1420416,
            "target" : 34962
        },
        {
            "buffer" : 0,
            "byteLength" : 34530,
            "byteOffset" : 1480884,
            "target" : 34963
        },
        {
            "buffer" : 0,
            "byteLength" : 36864,
            "byteOffset" : 1515416,
            "target" : 34962
        },
        {
            "buffer" : 0,
            "byteLength" : 36864,
            "byteOffset" : 1552280,
            "target" : 34962
        },
        {
            "buffer" : 0,
            "byteLength" : 34560,
            "byteOffset" : 1589144,
            "target" : 34963
        },
        {
            "buffer" : 0,
            "byteLength" : 326304,
            "byteOffset" : 1623704,
            "target" : 34962
        },
        {
            "buffer" : 0,
            "byteLength" : 326304,
            "byteOffset" : 1950008,
            "target" : 34962
        },
        {
            "buffer" : 0,
            "byteLength" : 217536,
            "byteOffset" : 2276312,
            "target" : 34962
        },
        {
            "buffer" : 0,
            "byteLength" : 54384,
            "byteOffset" : 2493848,
            "target" : 34963
        },
        {
            "buffer" : 0,
            "byteLength" : 9720,
            "byteOffset" : 2548232,
            "target" : 34962
        },
        {
            "buffer" : 0,
            "byteLength" : 9720,
            "byteOffset" : 2557952,
            "target" : 34962
        },
        {
            "buffer" : 0,
            "byteLength" : 6480,
            "byteOffset" : 2567672,
            "target" : 34962
        },
        {
            "buffer" : 0,
            "byteLength" : 1620,
            "byteOffset" : 2574152,
            "target" : 34963
        },
        {
            "buffer" : 0,
            "byteLength" : 3540,
            "byteOffset" : 2575772,
            "target" : 34962
        },
        {
            "buffer" : 0,
            "byteLength" : 3540,
            "byteOffset" : 2579312,
            "target" : 34962
        },
        {
            "buffer" : 0,
            "byteLength" : 2814,
            "byteOffset" : 2582852,
            "target" : 34963
        }
    ],
    "buffers" : [
        {
            "byteLength" : 2585668,
            "uri" : "data:application/octet-stream;base64,"
        }
    ]
}
